HIERARCHY
ROOT Hips
{
  OFFSET 5.84602e-005 68.8428 3.50346
  CHANNELS 6 Xposition Yposition Zposition Zrotation Xrotation Yrotation
  JOINT Spine
  {
    OFFSET 0 8.597 -4.6522
    CHANNELS 3 Zrotation Xrotation Yrotation
    JOINT Spine1
    {
      OFFSET 0 7.8454 0.4098
      CHANNELS 3 Zrotation Xrotation Yrotation
      JOINT Spine2
      {
        OFFSET 0 9.7078 -2.1609
        CHANNELS 3 Zrotation Xrotation Yrotation
        JOINT Neck
        {
          OFFSET 0 21.8761 -0.4549
          CHANNELS 3 Zrotation Xrotation Yrotation
          JOINT Head
          {
            OFFSET 0 12.3537 3.3602
            CHANNELS 3 Zrotation Xrotation Yrotation
            End Site
            {
              OFFSET 0.0001 18.9506 0.5657
            }
          }
        }
        JOINT LeftShoulder
        {
          OFFSET 2.2086 21.1115 7.2329
          CHANNELS 3 Zrotation Xrotation Yrotation
          JOINT LeftArm
          {
            OFFSET 13.1193 3.0282 -4.8998
            CHANNELS 3 Zrotation Xrotation Yrotation
            JOINT LeftForeArm
            {
              OFFSET 27.4081 -0.0973053 -0.2375
              CHANNELS 3 Zrotation Xrotation Yrotation
              JOINT LeftHand
              {
                OFFSET 22.8641 0.0662994 -0.1369
                CHANNELS 3 Zrotation Xrotation Yrotation
                JOINT LeftHandIndex1
                {
                  OFFSET 8.8614 0.775009 2.4612
                  CHANNELS 3 Zrotation Xrotation Yrotation
                  JOINT LeftHandIndex2
                  {
                    OFFSET 3.3146 -0.808304 0.5841
                    CHANNELS 3 Zrotation Xrotation Yrotation
                    JOINT LeftHandIndex3
                    {
                      OFFSET 2.2628 -0.552002 0.3989
                      CHANNELS 3 Zrotation Xrotation Yrotation
                      End Site
                      {
                        OFFSET 1.6102 -0.4807 0.2612
                      }
                    }
                  }
                }
                JOINT LeftHandMiddle1
                {
                  OFFSET 8.9937 0.895004 0.2143
                  CHANNELS 3 Zrotation Xrotation Yrotation
                  JOINT LeftHandMiddle2
                  {
                    OFFSET 4.0984 0.0113983 -0.0242
                    CHANNELS 3 Zrotation Xrotation Yrotation
                    JOINT LeftHandMiddle3
                    {
                      OFFSET 2.2716 0.00689697 -0.0138001
                      CHANNELS 3 Zrotation Xrotation Yrotation
                      End Site
                      {
                        OFFSET 2.0404 -0.1441 0.0027
                      }
                    }
                  }
                }
                JOINT LeftHandRing1
                {
                  OFFSET 8.5234 0.597198 -2.0164
                  CHANNELS 3 Zrotation Xrotation Yrotation
                  JOINT LeftHandRing2
                  {
                    OFFSET 3.7188 -0.188293 -0.2328
                    CHANNELS 3 Zrotation Xrotation Yrotation
                    JOINT LeftHandRing3
                    {
                      OFFSET 2.1191 -0.106598 -0.1332
                      CHANNELS 3 Zrotation Xrotation Yrotation
                      End Site
                      {
                        OFFSET 1.8737 -0.2304 -0.0886
                      }
                    }
                  }
                }
                JOINT LeftHandPinky1
                {
                  OFFSET 7.9094 -0.601089 -3.4825
                  CHANNELS 3 Zrotation Xrotation Yrotation
                  JOINT LeftHandPinky2
                  {
                    OFFSET 2.2874 -0.477005 -0.6314
                    CHANNELS 3 Zrotation Xrotation Yrotation
                    JOINT LeftHandPinky3
                    {
                      OFFSET 1.6774 -0.349396 -0.4633
                      CHANNELS 3 Zrotation Xrotation Yrotation
                      End Site
                      {
                        OFFSET 1.4888 -0.4091 -0.3416
                      }
                    }
                  }
                }
                JOINT LeftHandThumb1
                {
                  OFFSET 1.833 -1.3875 1.3896
                  CHANNELS 3 Zrotation Xrotation Yrotation
                  JOINT LeftHandThumb2
                  {
                    OFFSET 3.4129 -1.121 2.5732
                    CHANNELS 3 Zrotation Xrotation Yrotation
                    JOINT LeftHandThumb3
                    {
                      OFFSET 2.2474 -0.804199 1.6192
                      CHANNELS 3 Zrotation Xrotation Yrotation
                      End Site
                      {
                        OFFSET 1.6527 -0.5689 1.1317
                      }
                    }
                  }
                }
              }
            }
          }
        }
        JOINT RightShoulder
        {
          OFFSET -2.2086 21.1115 7.2329
          CHANNELS 3 Zrotation Xrotation Yrotation
          JOINT RightArm
          {
            OFFSET -13.1216 3.0287 -4.9007
            CHANNELS 3 Zrotation Xrotation Yrotation
            JOINT RightForeArm
            {
              OFFSET -27.4081 -0.0973053 -0.2375
              CHANNELS 3 Zrotation Xrotation Yrotation
              JOINT RightHand
              {
                OFFSET -22.8641 0.0664063 -0.1369
                CHANNELS 3 Zrotation Xrotation Yrotation
                JOINT RightHandIndex1
                {
                  OFFSET -8.8614 0.774994 2.4612
                  CHANNELS 3 Zrotation Xrotation Yrotation
                  JOINT RightHandIndex2
                  {
                    OFFSET -3.3146 -0.808304 0.5841
                    CHANNELS 3 Zrotation Xrotation Yrotation
                    JOINT RightHandIndex3
                    {
                      OFFSET -2.2628 -0.552002 0.3989
                      CHANNELS 3 Zrotation Xrotation Yrotation
                      End Site
                      {
                        OFFSET -1.6102 -0.4807 0.2612
                      }
                    }
                  }
                }
                JOINT RightHandMiddle1
                {
                  OFFSET -8.9937 0.894989 0.2143
                  CHANNELS 3 Zrotation Xrotation Yrotation
                  JOINT RightHandMiddle2
                  {
                    OFFSET -4.0984 0.0113983 -0.0242
                    CHANNELS 3 Zrotation Xrotation Yrotation
                    JOINT RightHandMiddle3
                    {
                      OFFSET -2.2716 0.00691223 -0.0138001
                      CHANNELS 3 Zrotation Xrotation Yrotation
                      End Site
                      {
                        OFFSET -2.0404 -0.1441 0.0027
                      }
                    }
                  }
                }
                JOINT RightHandRing1
                {
                  OFFSET -8.5234 0.597198 -2.0164
                  CHANNELS 3 Zrotation Xrotation Yrotation
                  JOINT RightHandRing2
                  {
                    OFFSET -3.7188 -0.188309 -0.2328
                    CHANNELS 3 Zrotation Xrotation Yrotation
                    JOINT RightHandRing3
                    {
                      OFFSET -2.1191 -0.106598 -0.1332
                      CHANNELS 3 Zrotation Xrotation Yrotation
                      End Site
                      {
                        OFFSET -1.8737 -0.2304 -0.0886
                      }
                    }
                  }
                }
                JOINT RightHandPinky1
                {
                  OFFSET -7.9094 -0.601105 -3.4825
                  CHANNELS 3 Zrotation Xrotation Yrotation
                  JOINT RightHandPinky2
                  {
                    OFFSET -2.2874 -0.477005 -0.6314
                    CHANNELS 3 Zrotation Xrotation Yrotation
                    JOINT RightHandPinky3
                    {
                      OFFSET -1.6774 -0.349396 -0.4633
                      CHANNELS 3 Zrotation Xrotation Yrotation
                      End Site
                      {
                        OFFSET -1.4888 -0.4091 -0.3416
                      }
                    }
                  }
                }
                JOINT RightHandThumb1
                {
                  OFFSET -1.833 -1.38751 1.3896
                  CHANNELS 3 Zrotation Xrotation Yrotation
                  JOINT RightHandThumb2
                  {
                    OFFSET -3.41299 -1.12099 2.5732
                    CHANNELS 3 Zrotation Xrotation Yrotation
                    JOINT RightHandThumb3
                    {
                      OFFSET -2.24741 -0.804108 1.6192
                      CHANNELS 3 Zrotation Xrotation Yrotation
                      End Site
                      {
                        OFFSET -1.6527 -0.5689 1.1317
                      }
                    }
                  }
                }
              }
            }
          }
        }
      }
    }
  }
  JOINT RightUpLeg
  {
    OFFSET -9.1966 3.8861 -0.7581
    CHANNELS 3 Zrotation Xrotation Yrotation
    JOINT RightLeg
    {
      OFFSET -0.7359 -41.0265 0
      CHANNELS 3 Zrotation Xrotation Yrotation
      JOINT RightFoot
      {
        OFFSET 0 -40.2855 0
        CHANNELS 3 Zrotation Xrotation Yrotation
        JOINT RightToeBase
        {
          OFFSET 0 -5.6122 11.7359
          CHANNELS 3 Zrotation Xrotation Yrotation
          End Site
          {
            OFFSET 0 0 7.8731
          }
        }
      }
    }
  }
  JOINT LeftUpLeg
  {
    OFFSET 9.1965 3.8864 -0.7581
    CHANNELS 3 Zrotation Xrotation Yrotation
    JOINT LeftLeg
    {
      OFFSET 0.7359 -41.0268 0
      CHANNELS 3 Zrotation Xrotation Yrotation
      JOINT LeftFoot
      {
        OFFSET 0 -40.2855 0
        CHANNELS 3 Zrotation Xrotation Yrotation
        JOINT LeftToeBase
        {
          OFFSET 0 -5.6122 11.7359
          CHANNELS 3 Zrotation Xrotation Yrotation
          End Site
          {
            OFFSET 0 0 7.8731
          }
        }
      }
    }
  }
}
MOTION
Frames:	6
Frame Time:	0.0333333
-0.715035 64.9114 8.58108 -0 -4.86679 -0 -0.00751842 4.82836 -0.00281499 -0.0148775 9.65676 -0.00501839 -0.0148775 9.65675 -0.00501839 -5.9363e-007 -5.85198 8.01513e-008 -8.29667e-009 -0.267536 -2.77289e-009 -28.7259 -10.005 0.253076 -36.3338 26.2296 -31.1389 -8.90325 -18.1648 -26.5306 -7.00032 1.20583e-006 -3.56428e-006 4.26188e-007 8.20158e-008 -2.71863e-007 1.59028e-015 -1.59028e-015 1.59028e-014 1.59028e-015 -3.18055e-015 6.36111e-015 4.26188e-007 8.20158e-008 -2.71863e-007 -0.0146095 -8.81091e-005 -1.73514e-006 -1.76556e-031 3.18055e-015 3.18055e-015 4.26188e-007 8.20158e-008 -2.71863e-007 -0.018749 -0.00117621 6.14949e-005 1.59028e-015 -4.77083e-015 3.18055e-015 4.26188e-007 8.20158e-008 -2.71863e-007 -0.0122956 -0.0032539 0.000678387 9.54166e-015 -1.59028e-015 6.36111e-015 4.26188e-007 8.20158e-008 -2.71863e-007 1.59028e-015 -1.59028e-015 1.59028e-014 1.59028e-015 -3.18055e-015 6.36111e-015 12.9884 13.9364 5.19118 52.4028 35.2765 34.5182 14.7036 -13.9607 47.3581 -20.2575 -0.974674 0.00392757 1.76556e-031 -3.18055e-015 3.18055e-015 1.59028e-015 -6.36111e-015 -0 3.18055e-015 -3.18055e-015 -0 1.76556e-031 -3.18055e-015 3.18055e-015 0.0149921 -9.16946e-005 6.1238e-006 -9.28833e-007 -1.41669e-007 1.62747e-007 1.76556e-031 -3.18055e-015 3.18055e-015 0.0190041 -0.00119487 -5.96331e-005 3.18055e-015 -3.18055e-015 -9.54166e-015 1.76556e-031 -3.18055e-015 3.18055e-015 0.0122659 -0.00324619 -0.000677187 3.53113e-031 6.36111e-015 -3.18055e-015 1.76556e-031 -3.18055e-015 3.18055e-015 1.59028e-015 -6.36111e-015 -0 3.18055e-015 -3.18055e-015 -0 -0.583003 9.01491 -9.81685 2.99764 0.413054 0.949325 10.0786 0.219211 -6.87479 9.00033e-007 -2.99886e-007 7.67996e-008 13.1682 4.37 11.9393 0.0788287 4.23649 -0.964027 -12.1451 6.73085 7.31515 -1.98357e-007 5.15633e-008 -1.69954e-006 
-0.714559 64.9196 8.66304 -0 -5.00071 -0 8.20198e-017 4.7991 2.32249e-014 -3.97498e-023 9.59827 -5.76716e-022 3.97095e-023 9.59827 -5.94382e-022 -2.3472e-020 -6.00208 -1.73477e-021 3.74604e-022 -0.267539 -2.49044e-021 -29.0017 -10.0015 -0.00254701 -36.316 26.4543 -30.4714 -8.7485 -18.0582 -26.3931 -7.00032 4.2028e-006 1.05718e-007 -3.18055e-015 0 1.90833e-014 1.59028e-015 1.59028e-015 9.54166e-015 1.76556e-031 -1.59028e-015 6.36111e-015 -3.18055e-015 0 1.90833e-014 -0.0146137 -9.02212e-005 4.48621e-006 0 0 -3.18055e-015 -3.18055e-015 0 1.90833e-014 -0.0187682 -0.00117725 6.1467e-005 -1.59028e-015 -4.77083e-015 -3.18055e-015 -3.18055e-015 0 1.90833e-014 -0.0122967 -0.00325569 0.000680903 8.82781e-032 1.59028e-015 -3.18055e-015 -3.18055e-015 0 1.90833e-014 1.59028e-015 1.59028e-015 9.54166e-015 1.76556e-031 -1.59028e-015 6.36111e-015 13.1229 14.3268 5.20321 52.3203 35.2263 34.4597 14.6704 -13.748 47.7772 -21.0012 -1.00079 -0.00233391 -1.59028e-015 3.18055e-015 3.18055e-015 -3.18055e-015 6.36111e-015 -0 -3.18055e-015 3.18055e-015 3.18055e-015 -1.59028e-015 3.18055e-015 3.18055e-015 0.0149991 -9.38593e-005 -2.84528e-006 -9.54166e-015 9.54166e-015 3.18055e-015 -1.59028e-015 3.18055e-015 3.18055e-015 0.0189856 -0.00118932 -6.16833e-005 1.59028e-015 0 -0 -1.59028e-015 3.18055e-015 3.18055e-015 0.0122642 -0.00324938 -0.000675626 -1.59028e-015 9.54166e-015 -9.54166e-015 -1.59028e-015 3.18055e-015 3.18055e-015 -3.18055e-015 6.36111e-015 -0 -3.18055e-015 3.18055e-015 3.18055e-015 -0.610177 9.17149 -9.83571 2.99767 0.556189 0.977037 10.0756 0.0548257 -6.86029 9.00088e-007 -2.99808e-007 7.66526e-008 13.1674 4.52397 11.9576 -0.00176507 4.27803 -0.968358 -12.1665 6.51135 7.23741 -4.362e-008 2.53695e-008 -1.68866e-006 
-0.715035 64.9114 8.58108 -0 -4.86679 -0 -0.00751842 4.82837 -0.002815 -0.0148775 9.65675 -0.00501839 -0.0148775 9.65675 -0.00501839 -5.85636e-007 -5.85189 1.06131e-007 -5.5924e-009 -0.267538 -5.44577e-009 -28.7259 -10.005 0.253075 -36.3338 26.2296 -31.1389 -8.90326 -18.1648 -26.5306 -7.00033 8.91018e-006 -2.08663e-006 -1.59028e-015 1.59028e-015 -6.36111e-015 0 0 -9.54166e-015 1.59028e-015 1.59028e-015 9.54166e-015 -1.59028e-015 1.59028e-015 -6.36111e-015 -0.0146159 -8.33502e-005 -2.78023e-006 1.59028e-015 0 -3.18055e-015 -1.59028e-015 1.59028e-015 -6.36111e-015 -0.0187793 -0.00117766 6.16487e-005 1.59028e-015 -3.18055e-015 6.36111e-015 -1.59028e-015 1.59028e-015 -6.36111e-015 -0.0122134 -0.00323426 0.000669357 4.77083e-015 3.18055e-015 3.18055e-015 -1.59028e-015 1.59028e-015 -6.36111e-015 0 0 -9.54166e-015 1.59028e-015 1.59028e-015 9.54166e-015 12.9884 13.9364 5.19118 52.4028 35.2765 34.5182 14.7036 -13.9607 47.3581 -20.2575 -0.974688 0.00392228 4.77083e-015 3.18055e-015 9.54166e-015 -3.18055e-015 0 3.18055e-015 -1.59028e-015 0 -6.36111e-015 4.77083e-015 3.18055e-015 9.54166e-015 0.0150031 -9.11996e-005 3.40899e-006 -1.76556e-031 -3.18055e-015 -3.18055e-015 4.77083e-015 3.18055e-015 9.54166e-015 0.018991 -0.00118943 -6.03935e-005 -1.74931e-014 3.18055e-015 3.18055e-015 4.77083e-015 3.18055e-015 9.54166e-015 0.0122806 -0.00324854 -0.000675142 1.59028e-015 0 -3.18055e-015 4.77083e-015 3.18055e-015 9.54166e-015 -3.18055e-015 0 3.18055e-015 -1.59028e-015 0 -6.36111e-015 -0.583003 9.01491 -9.81685 2.99764 0.413055 0.949319 10.0786 0.219209 -6.87478 1.20104e-007 -8.39981e-007 8.88125e-008 13.1682 4.37 11.9393 0.0788283 4.23648 -0.964026 -12.1451 6.73086 7.31516 -1.31074e-007 2.30896e-008 -9.07976e-009 
-0.715829 64.8979 8.44442 -0 -4.6436 -0 -0.0199909 4.87711 -0.00763229 -0.0395432 9.75432 -0.013624 -0.0395432 9.75433 -0.013624 -6.78251e-007 -5.60198 2.24748e-007 -7.17789e-010 -0.267533 -4.9488e-009 -28.2662 -10.0093 0.679178 -36.3711 25.8528 -32.2487 -9.16228 -18.3418 -26.7605 -7.00032 -3.58405e-007 -3.97269e-006 -1.59028e-015 4.77083e-015 1.59028e-014 -1.58901e-030 4.77083e-015 1.90833e-014 -4.77083e-015 4.77083e-015 1.59028e-014 -1.59028e-015 4.77083e-015 1.59028e-014 -0.0146 -8.68179e-005 -4.05922e-007 4.20939e-007 1.15514e-007 -2.17958e-007 -1.59028e-015 4.77083e-015 1.59028e-014 -0.0187124 -0.00117513 5.82551e-005 3.18055e-015 0 9.54166e-015 -1.59028e-015 4.77083e-015 1.59028e-014 -0.0122355 -0.00324163 0.000674807 1.59028e-015 7.95139e-015 3.18055e-015 -1.59028e-015 4.77083e-015 1.59028e-014 -1.58901e-030 4.77083e-015 1.90833e-014 -4.77083e-015 4.77083e-015 1.59028e-014 12.7642 13.2855 5.17035 52.5402 35.3601 34.6159 14.7547 -14.3166 46.6587 -19.017 -0.931033 0.0139553 2.88949e-007 5.12614e-007 -6.11632e-007 2.88949e-007 5.12614e-007 -6.11632e-007 2.88949e-007 5.12614e-007 -6.11632e-007 2.88949e-007 5.12614e-007 -6.11632e-007 0.0149859 -8.97459e-005 -1.10255e-006 2.8896e-007 5.12534e-007 -6.11699e-007 2.88949e-007 5.12614e-007 -6.11632e-007 0.0189993 -0.00119284 -5.62252e-005 2.88957e-007 5.12512e-007 -6.1172e-007 2.88949e-007 5.12614e-007 -6.11632e-007 0.0122641 -0.00324717 -0.0006793 2.88938e-007 5.12548e-007 -6.11695e-007 2.88949e-007 5.12614e-007 -6.11632e-007 2.88949e-007 5.12614e-007 -6.11632e-007 2.88949e-007 5.12614e-007 -6.11632e-007 -0.549624 8.68564 -9.78457 2.9977 0.314212 0.906884 10.0823 0.422711 -6.89274 1.49089e-015 1.19271e-015 6.36111e-015 13.1698 4.1123 11.909 0.213118 4.16943 -0.956869 -12.1104 7.09556 7.4448 7.8624e-008 -1.38894e-008 5.6449e-009 
-0.716458 64.8871 8.33503 -0 -4.46503 -0 -0.0299379 4.91624 -0.0115718 -0.059204 9.8325 -0.020669 -0.059204 9.8325 -0.020669 -1.29899e-006 -5.40204 -1.08819e-007 -2.81488e-009 -0.267537 7.31937e-010 -27.8982 -10.0098 1.0203 -36.4064 25.552 -33.1366 -9.37024 -18.4827 -26.9453 -7.00032 7.75569e-008 5.99902e-007 1.76556e-031 1.59028e-015 -6.36111e-015 3.18055e-015 3.18055e-015 -6.36111e-015 8.82781e-032 1.59028e-015 -3.18055e-015 1.76556e-031 1.59028e-015 -6.36111e-015 -0.0146 -8.79338e-005 -4.52981e-006 -1.59028e-015 3.18055e-015 3.18055e-015 1.76556e-031 1.59028e-015 -6.36111e-015 -0.018745 -0.00117514 5.89903e-005 1.59028e-015 1.59028e-015 -0 1.76556e-031 1.59028e-015 -6.36111e-015 -0.0122204 -0.00323737 0.000675433 0 1.59028e-015 -0 1.76556e-031 1.59028e-015 -6.36111e-015 3.18055e-015 3.18055e-015 -6.36111e-015 8.82781e-032 1.59028e-015 -3.18055e-015 12.585 12.7645 5.15144 52.6501 35.4273 34.6938 14.7926 -14.6018 46.0981 -18.0221 -0.895851 0.0212176 5.74577e-007 1.0209e-006 -1.22976e-006 -1.59028e-015 9.54166e-015 9.54166e-015 2.87288e-007 5.1045e-007 -6.14881e-007 5.74577e-007 1.0209e-006 -1.22976e-006 0.0150008 -9.59743e-005 -2.92751e-007 1.34637e-006 6.65423e-007 -8.83638e-007 5.74577e-007 1.0209e-006 -1.22976e-006 0.0189981 -0.00119149 -5.70568e-005 1.34673e-006 6.65293e-007 -8.83679e-007 5.74577e-007 1.0209e-006 -1.22976e-006 0.0122617 -0.00324254 -0.000670337 2.87277e-007 5.10384e-007 -6.14944e-007 5.74577e-007 1.0209e-006 -1.22976e-006 -1.59028e-015 9.54166e-015 9.54166e-015 2.87288e-007 5.1045e-007 -6.14881e-007 -0.521262 8.43123 -9.75839 2.99774 0.216412 0.872437 10.0852 0.594977 -6.90795 -9.93923e-016 -3.97569e-016 -3.18055e-015 13.1709 3.90595 11.8846 0.320545 4.11614 -0.950963 -12.083 7.38733 7.54836 -7.70848e-008 -8.37704e-007 -1.67656e-006 
-0.717093 64.8764 8.22559 -0 -4.28646 -0 -0.0398512 4.9554 -0.0155932 -0.0787876 9.91082 -0.027869 -0.0787875 9.91082 -0.027869 4.25635e-007 -5.20199 4.25861e-008 -5.67242e-008 -0.267532 -1.31407e-009 -27.5301 -10.0084 1.36148 -36.4468 25.2512 -34.0238 -9.57889 -18.6229 -27.1307 -7.00034 -2.51482e-006 -5.84088e-006 9.54166e-015 1.11319e-014 1.90833e-014 1.27222e-014 9.54166e-015 1.27222e-014 7.95139e-015 1.27222e-014 2.22639e-014 9.54166e-015 1.11319e-014 1.90833e-014 -0.0145775 -8.55788e-005 5.38844e-007 -2.64834e-031 -4.77083e-015 -3.18055e-015 9.54166e-015 1.11319e-014 1.90833e-014 -0.0187812 -0.0011801 5.73567e-005 1.59028e-015 -3.18055e-015 -3.18055e-015 9.54166e-015 1.11319e-014 1.90833e-014 -0.0122875 -0.00325152 0.000678117 -1.59028e-015 -4.77083e-015 1.27222e-014 9.54166e-015 1.11319e-014 1.90833e-014 1.27222e-014 9.54166e-015 1.27222e-014 7.95139e-015 1.27222e-014 2.22639e-014 12.4059 12.2432 5.13091 52.76 35.4945 34.7717 14.8278 -14.8875 45.5365 -17.0255 -0.860506 0.0278602 2.85566e-007 5.08241e-007 -6.1813e-007 5.71131e-007 1.01648e-006 -1.23626e-006 5.71131e-007 1.01648e-006 -1.23626e-006 2.85566e-007 5.08241e-007 -6.1813e-007 0.0149983 -9.4665e-005 -5.27233e-007 5.71152e-007 1.01632e-006 -1.23639e-006 2.85566e-007 5.08241e-007 -6.1813e-007 0.018988 -0.00118867 -5.4251e-005 5.71146e-007 1.01628e-006 -1.23643e-006 2.85566e-007 5.08241e-007 -6.1813e-007 0.0122554 -0.00324228 -0.000678657 5.71108e-007 1.01635e-006 -1.23639e-006 2.85566e-007 5.08241e-007 -6.1813e-007 5.71131e-007 1.01648e-006 -1.23626e-006 5.71131e-007 1.01648e-006 -1.23626e-006 -0.493937 8.17052 -9.73179 2.99779 0.13134 0.838316 10.088 0.760831 -6.9226 -6.50715e-008 1.796e-007 1.67985e-006 13.1722 3.69865 11.8603 0.427965 4.06474 -0.94503 -12.0561 7.67824 7.65178 8.40347e-009 -8.66183e-007 1.72079e-008 
